<svg width="280" height="62" viewBox="0 0 280 62" fill="none" xmlns="http://www.w3.org/2000/svg">
<path d="M264.265 38.4562C263.776 38.4562 263.31 38.3631 262.868 38.1768C262.437 37.9789 262.058 37.7227 261.732 37.4084C261.406 37.0824 261.15 36.704 260.964 36.2732C260.778 35.8308 260.685 35.3651 260.685 34.8761V27.7158C260.685 27.2268 260.778 26.7669 260.964 26.3361C261.15 25.8937 261.406 25.5153 261.732 25.2009C262.058 24.8749 262.437 24.6188 262.868 24.4325C263.31 24.2346 263.776 24.1356 264.265 24.1356H276.42C276.909 24.1356 277.369 24.2346 277.799 24.4325C278.242 24.6188 278.626 24.8749 278.952 25.2009C279.278 25.5153 279.534 25.8937 279.721 26.3361C279.907 26.7669 280 27.2268 280 27.7158V30.9466H276.42V27.7158H264.265V34.8761H276.42C276.909 34.8761 277.369 34.9692 277.799 35.1555C278.242 35.3418 278.626 35.5979 278.952 35.9239C279.278 36.2499 279.534 36.6341 279.721 37.0766C279.907 37.5073 280 37.9672 280 38.4562V45.5991C280 46.0881 279.907 46.5538 279.721 46.9962C279.534 47.427 279.278 47.8054 278.952 48.1314C278.626 48.4574 278.242 48.7135 277.799 48.8998C277.369 49.0861 276.909 49.1792 276.42 49.1792H263.915C263.426 49.1792 262.961 49.0861 262.518 48.8998C262.088 48.7135 261.709 48.4574 261.383 48.1314C261.057 47.8054 260.801 47.427 260.615 46.9962C260.428 46.5538 260.335 46.0881 260.335 45.5991V42.3857H263.915V45.5991H276.42V38.4562H264.265Z" fill="#1E1E1E"/>
<path d="M245.622 45.5991C247.287 45.5991 248.567 45.1508 249.464 44.2543C250.36 43.3578 250.808 42.0771 250.808 40.4122V32.9026C250.808 32.0876 250.692 31.36 250.459 30.7196C250.226 30.0793 249.883 29.5379 249.429 29.0954C248.986 28.6414 248.445 28.2979 247.805 28.0651C247.164 27.8322 246.437 27.7158 245.622 27.7158H236.47V45.5991H245.622ZM232.89 49.1792V24.1356H245.622C246.961 24.1356 248.166 24.3452 249.237 24.7643C250.319 25.1718 251.239 25.7598 251.996 26.5282C252.764 27.285 253.352 28.2048 253.76 29.2875C254.179 30.3703 254.389 31.5754 254.389 32.9026V40.4122C254.389 41.7395 254.179 42.9445 253.76 44.0273C253.352 45.1101 252.764 46.0357 251.996 46.8041C251.239 47.5609 250.319 48.1488 249.237 48.568C248.166 48.9755 246.961 49.1792 245.622 49.1792H232.89Z" fill="#1E1E1E"/>
<path d="M225.896 24.1356V49.1792H222.316V24.1356H225.896Z" fill="#1E1E1E"/>
<path d="M200.966 24.1356V34.9459L212.911 24.1356H217.958L204.406 36.4129L218.5 49.1792H213.452L200.966 37.9148V49.1792H197.385V24.1356H200.966Z" fill="#1E1E1E"/>
<path d="M182.375 37.3733H190.74V40.8137H182.375V37.3733Z" fill="#1E1E1E"/>
<path d="M158.562 24.1356H176.812V27.7158H162.142V34.8761H174.664V38.4562H162.142V45.5991H176.812V49.1792H158.562V24.1356Z" fill="#1E1E1E"/>
<path d="M133.213 49.1792V24.1356H146.922C150.974 24.1356 153 26.1673 153 30.2306V33.7933C153 37.8566 150.974 39.8883 146.922 39.8883H136.793V49.1792H133.213ZM136.793 36.3081H146.73C147.685 36.3081 148.372 36.0986 148.791 35.6794C149.21 35.2603 149.42 34.5734 149.42 33.6187V30.4053C149.42 29.4505 149.21 28.7636 148.791 28.3445C148.372 27.9253 147.685 27.7158 146.73 27.7158H136.793V36.3081Z" fill="#1E1E1E"/>
<path d="M118.709 24.1356L128.366 49.1792H124.786L122.568 43.4161H111.269L109.051 49.1792H105.471L115.129 24.1356H118.709ZM112.631 39.8359H121.189L116.927 28.7986L112.631 39.8359Z" fill="#1E1E1E"/>
<path d="M80.593 27.7158C80.593 27.2268 80.6862 26.7669 80.8725 26.3361C81.0588 25.8937 81.3149 25.5153 81.6409 25.2009C81.9669 24.8749 82.3453 24.6188 82.7761 24.4325C83.2185 24.2346 83.6842 24.1356 84.1732 24.1356H97.7603C98.2493 24.1356 98.7092 24.2346 99.14 24.4325C99.5824 24.6188 99.9666 24.8749 100.293 25.2009C100.619 25.5153 100.875 25.8937 101.061 26.3361C101.247 26.7669 101.34 27.2268 101.34 27.7158V30.9466H97.7603V27.7158H84.1732V45.5991H97.7603V42.3857H101.34V45.5991C101.34 46.0881 101.247 46.5538 101.061 46.9962C100.875 47.427 100.619 47.8054 100.293 48.1314C99.9666 48.4574 99.5824 48.7135 99.14 48.8998C98.7092 49.0861 98.2493 49.1792 97.7603 49.1792H84.1732C83.6842 49.1792 83.2185 49.0861 82.7761 48.8998C82.3453 48.7135 81.9669 48.4574 81.6409 48.1314C81.3149 47.8054 81.0588 47.427 80.8725 46.9962C80.6862 46.5538 80.593 46.0881 80.593 45.5991V27.7158Z" fill="#1E1E1E"/>
<ellipse cx="20.4882" cy="40.9767" rx="20.4882" ry="20.488" fill="#FF3B30"/>
<ellipse cx="47.8063" cy="40.9767" rx="20.4882" ry="20.488" fill="#34C759"/>
<ellipse cx="34.1462" cy="20.488" rx="20.4882" ry="20.488" fill="#007AFF"/>
</svg>
