<svg width="140" height="31" viewBox="0 0 140 31" fill="none" xmlns="http://www.w3.org/2000/svg">
<path d="M132.132 19.228C131.888 19.228 131.655 19.1815 131.434 19.0883C131.218 18.9894 131.029 18.8613 130.866 18.7041C130.703 18.5411 130.575 18.3519 130.482 18.1365C130.389 17.9153 130.342 17.6825 130.342 17.438V13.8578C130.342 13.6133 130.389 13.3834 130.482 13.168C130.575 12.9468 130.703 12.7576 130.866 12.6004C131.029 12.4374 131.218 12.3093 131.434 12.2162C131.655 12.1172 131.888 12.0677 132.132 12.0677H138.21C138.454 12.0677 138.684 12.1172 138.9 12.2162C139.121 12.3093 139.313 12.4374 139.476 12.6004C139.639 12.7576 139.767 12.9468 139.86 13.168C139.953 13.3834 140 13.6133 140 13.8578V15.4732H138.21V13.8578H132.132V17.438H138.21C138.454 17.438 138.684 17.4845 138.9 17.5777C139.121 17.6708 139.313 17.7989 139.476 17.9619C139.639 18.1249 139.767 18.317 139.86 18.5382C139.953 18.7536 140 18.9835 140 19.228V22.7995C140 23.044 139.953 23.2768 139.86 23.498C139.767 23.7134 139.639 23.9026 139.476 24.0656C139.313 24.2286 139.121 24.3567 138.9 24.4498C138.684 24.543 138.454 24.5895 138.21 24.5895H131.958C131.713 24.5895 131.48 24.543 131.259 24.4498C131.044 24.3567 130.855 24.2286 130.692 24.0656C130.529 23.9026 130.401 23.7134 130.307 23.498C130.214 23.2768 130.168 23.044 130.168 22.7995V21.1928H131.958V22.7995H138.21V19.228H132.132Z" fill="white"/>
<path d="M122.811 22.7995C123.643 22.7995 124.284 22.5753 124.732 22.1271C125.18 21.6788 125.404 21.0385 125.404 20.206V16.4512C125.404 16.0437 125.346 15.6799 125.23 15.3597C125.113 15.0396 124.941 14.7689 124.714 14.5476C124.493 14.3206 124.223 14.1489 123.902 14.0325C123.582 13.916 123.218 13.8578 122.811 13.8578H118.235V22.7995H122.811ZM116.445 24.5895V12.0677H122.811C123.48 12.0677 124.083 12.1725 124.618 12.3821C125.16 12.5858 125.62 12.8798 125.998 13.264C126.382 13.6424 126.676 14.1023 126.88 14.6437C127.09 15.1851 127.194 15.7876 127.194 16.4512V20.206C127.194 20.8697 127.09 21.4722 126.88 22.0136C126.676 22.555 126.382 23.0178 125.998 23.402C125.62 23.7804 125.16 24.0743 124.618 24.2839C124.083 24.4877 123.48 24.5895 122.811 24.5895H116.445Z" fill="white"/>
<path d="M112.948 12.0677V24.5895H111.158V12.0677H112.948Z" fill="white"/>
<path d="M100.483 12.0677V17.4729L106.456 12.0677H108.979L102.203 18.2064L109.25 24.5895H106.726L100.483 18.9573V24.5895H98.6927V12.0677H100.483Z" fill="white"/>
<path d="M91.1874 18.6867H95.3701V20.4069H91.1874V18.6867Z" fill="white"/>
<path d="M79.2811 12.0677H88.4061V13.8578H81.0712V17.438H87.3321V19.228H81.0712V22.7995H88.4061V24.5895H79.2811V12.0677Z" fill="white"/>
<path d="M66.6064 24.5895V12.0677H73.4611C75.487 12.0677 76.4999 13.0836 76.4999 15.1152V16.8966C76.4999 18.9282 75.487 19.9441 73.4611 19.9441H68.3965V24.5895H66.6064ZM68.3965 18.154H73.3651C73.8424 18.154 74.1859 18.0492 74.3955 17.8396C74.605 17.6301 74.7098 17.2866 74.7098 16.8093V15.2026C74.7098 14.7252 74.605 14.3817 74.3955 14.1722C74.1859 13.9626 73.8424 13.8578 73.3651 13.8578H68.3965V18.154Z" fill="white"/>
<path d="M59.3544 12.0677L64.1832 24.5895H62.3931L61.2842 21.708H55.6345L54.5255 24.5895H52.7355L57.5643 12.0677H59.3544ZM56.3156 19.9179H60.5943L58.4637 14.3992L56.3156 19.9179Z" fill="white"/>
<path d="M40.2965 13.8578C40.2965 13.6133 40.3431 13.3834 40.4363 13.168C40.5294 12.9468 40.6575 12.7576 40.8205 12.6004C40.9835 12.4374 41.1727 12.3093 41.388 12.2162C41.6093 12.1172 41.8421 12.0677 42.0866 12.0677H48.8802C49.1247 12.0677 49.3546 12.1172 49.57 12.2162C49.7912 12.3093 49.9833 12.4374 50.1463 12.6004C50.3093 12.7576 50.4374 12.9468 50.5305 13.168C50.6237 13.3834 50.6703 13.6133 50.6703 13.8578V15.4732H48.8802V13.8578H42.0866V22.7995H48.8802V21.1928H50.6703V22.7995C50.6703 23.044 50.6237 23.2768 50.5305 23.498C50.4374 23.7134 50.3093 23.9026 50.1463 24.0656C49.9833 24.2286 49.7912 24.3567 49.57 24.4498C49.3546 24.543 49.1247 24.5895 48.8802 24.5895H42.0866C41.8421 24.5895 41.6093 24.543 41.388 24.4498C41.1727 24.3567 40.9835 24.2286 40.8205 24.0656C40.6575 23.9026 40.5294 23.7134 40.4363 23.498C40.3431 23.2768 40.2965 23.044 40.2965 22.7995V13.8578Z" fill="white"/>
<ellipse cx="10.2441" cy="20.4884" rx="10.2441" ry="10.244" fill="#FF3B30"/>
<ellipse cx="23.9031" cy="20.4884" rx="10.2441" ry="10.244" fill="#34C759"/>
<ellipse cx="17.0731" cy="10.244" rx="10.2441" ry="10.244" fill="#007AFF"/>
</svg>
